<?xml version="1.0" encoding="UTF-8" standalone="no"?>
<!DOCTYPE svg PUBLIC "-//W3C//DTD SVG 1.1//EN"
 "http://www.w3.org/Graphics/SVG/1.1/DTD/svg11.dtd">
<!-- Generated by graphviz version 14.1.5 (20260411.2331)
 -->
<!-- Title: DiagramaClassesEstoque Pages: 1 -->
<svg width="1470pt" height="999pt"
 viewBox="0.00 0.00 1470.00 999.00" xmlns="http://www.w3.org/2000/svg" xmlns:xlink="http://www.w3.org/1999/xlink">
<g id="graph0" class="graph" transform="scale(1 1) rotate(0) translate(25.2 973.33)">
<title>DiagramaClassesEstoque</title>
<polygon fill="white" stroke="none" points="-25.2,25.2 -25.2,-973.33 1444.33,-973.33 1444.33,25.2 -25.2,25.2"/>
<text xml:space="preserve" text-anchor="middle" x="709.56" y="-923.23" font-family="Arial" font-size="22.00">Diagrama de Classes &#45; Modulo de Estoque</text>
<!-- MovimentoEstoque -->
<g id="node1" class="node">
<title>MovimentoEstoque</title>
<polygon fill="#dff3e3" stroke="none" points="1256.38,-490.88 1256.38,-530.88 1418.12,-530.88 1418.12,-490.88 1256.38,-490.88"/>
<text xml:space="preserve" text-anchor="start" x="1312.88" y="-515.38" font-family="Arial" font-size="10.00">&lt;&lt;struct&gt;&gt;</text>
<text xml:space="preserve" text-anchor="start" x="1263.38" y="-499.68" font-family="Arial" font-weight="bold" font-size="16.00">MovimentoEstoque</text>
<text xml:space="preserve" text-anchor="start" x="1263.38" y="-471.12" font-family="Arial" font-size="14.00">+ operacao: string</text>
<text xml:space="preserve" text-anchor="start" x="1263.38" y="-441.38" font-family="Arial" font-size="14.00">+ quantidade: int</text>
<text xml:space="preserve" text-anchor="start" x="1263.38" y="-411.62" font-family="Arial" font-size="14.00">+ observacao: string</text>
<polygon fill="none" stroke="#2e7d32" points="1255.38,-400.62 1255.38,-531.88 1419.12,-531.88 1419.12,-400.62 1255.38,-400.62"/>
</g>
<!-- ItemEstoque -->
<g id="node2" class="node">
<title>ItemEstoque</title>
<polygon fill="#dcebff" stroke="none" points="800.88,-722 800.88,-762 1111.12,-762 1111.12,-722 800.88,-722"/>
<text xml:space="preserve" text-anchor="start" x="926.38" y="-746.5" font-family="Arial" font-size="10.00">&lt;&lt;abstract&gt;&gt;</text>
<text xml:space="preserve" text-anchor="start" x="908" y="-730.8" font-family="Arial" font-weight="bold" font-size="16.00">ItemEstoque</text>
<text xml:space="preserve" text-anchor="start" x="807.88" y="-702.25" font-family="Arial" font-size="14.00">&#45; codigo_: string</text>
<text xml:space="preserve" text-anchor="start" x="807.88" y="-672.5" font-family="Arial" font-size="14.00">&#45; tipoItem_: string</text>
<text xml:space="preserve" text-anchor="start" x="807.88" y="-642.75" font-family="Arial" font-size="14.00">&#45; nome_: string</text>
<text xml:space="preserve" text-anchor="start" x="807.88" y="-613" font-family="Arial" font-size="14.00">&#45; descricao_: string</text>
<text xml:space="preserve" text-anchor="start" x="807.88" y="-583.25" font-family="Arial" font-size="14.00">&#45; linkInformacoes_: string</text>
<text xml:space="preserve" text-anchor="start" x="807.88" y="-553.5" font-family="Arial" font-size="14.00">&#45; quantidade_: int</text>
<text xml:space="preserve" text-anchor="start" x="807.88" y="-523.75" font-family="Arial" font-size="14.00">&#45; precoUnitario_: double</text>
<text xml:space="preserve" text-anchor="start" x="807.88" y="-494" font-family="Arial" font-size="14.00">&#45; localizacao_: string</text>
<text xml:space="preserve" text-anchor="start" x="807.88" y="-464.25" font-family="Arial" font-size="14.00">&#45; movimentos_: vector&lt;MovimentoEstoque&gt;</text>
<polygon fill="none" stroke="#90a4ae" points="800.88,-438.25 800.88,-454.25 1111.12,-454.25 1111.12,-438.25 800.88,-438.25"/>
<text xml:space="preserve" text-anchor="start" x="807.88" y="-418.5" font-family="Arial" font-size="14.00">+ valorTotal(): double</text>
<text xml:space="preserve" text-anchor="start" x="807.88" y="-388.75" font-family="Arial" font-size="14.00">+ alvoBuscaInternet(): string</text>
<text xml:space="preserve" text-anchor="start" x="807.88" y="-359" font-family="Arial" font-size="14.00">+ registrarEntrada(qtd, obs): void</text>
<text xml:space="preserve" text-anchor="start" x="807.88" y="-329.25" font-family="Arial" font-size="14.00">+ registrarSaida(qtd, obs): void</text>
<text xml:space="preserve" text-anchor="start" x="807.88" y="-299.5" font-family="Arial" font-size="14.00">+ adicionarRegistroMovimento(op, qtd, obs): void</text>
<text xml:space="preserve" text-anchor="start" x="807.88" y="-270.2" font-family="Arial" font-style="italic" font-size="14.00">+ tipo(): string</text>
<text xml:space="preserve" text-anchor="start" x="807.88" y="-240.45" font-family="Arial" font-style="italic" font-size="14.00">+ imprimirResumo(out): void</text>
<text xml:space="preserve" text-anchor="start" x="807.88" y="-210.7" font-family="Arial" font-style="italic" font-size="14.00">+ imprimirDetalhado(out): void</text>
<text xml:space="preserve" text-anchor="start" x="807.88" y="-180.5" font-family="Arial" font-size="14.00"># validarCamposComuns(): void</text>
<polygon fill="none" stroke="#1565c0" points="799.88,-169.5 799.88,-763 1112.12,-763 1112.12,-169.5 799.88,-169.5"/>
</g>
<!-- ItemEstoque&#45;&gt;MovimentoEstoque -->
<g id="edge2" class="edge">
<title>ItemEstoque&#45;&gt;MovimentoEstoque</title>
<path fill="none" stroke="#2e7d32" d="M1122.5,-466.25C1165.02,-466.25 1209.19,-466.25 1246.26,-466.25"/>
<polygon fill="#2e7d32" stroke="#2e7d32" points="1122.58,-466.25 1117.78,-469.45 1112.98,-466.25 1117.78,-463.05 1122.58,-466.25"/>
<polygon fill="#2e7d32" stroke="#2e7d32" points="1246.01,-469.05 1254.01,-466.25 1246.01,-463.45 1246.01,-469.05"/>
<text xml:space="preserve" text-anchor="middle" x="1183.75" y="-468.75" font-family="Arial" font-size="10.00">0..* movimentos</text>
</g>
<!-- Produto -->
<g id="node3" class="node">
<title>Produto</title>
<polygon fill="#f0e3ff" stroke="none" points="259.88,-229.75 259.88,-269.75 687.88,-269.75 687.88,-229.75 259.88,-229.75"/>
<text xml:space="preserve" text-anchor="start" x="450.25" y="-254.25" font-family="Arial" font-size="10.00">&lt;&lt;class&gt;&gt;</text>
<text xml:space="preserve" text-anchor="start" x="443.5" y="-238.55" font-family="Arial" font-weight="bold" font-size="16.00">Produto</text>
<text xml:space="preserve" text-anchor="start" x="266.88" y="-210" font-family="Arial" font-size="14.00">+ Produto(codigo, tipo, nome, descricao, link, qtd, preco, localizacao)</text>
<text xml:space="preserve" text-anchor="start" x="266.88" y="-180.25" font-family="Arial" font-size="14.00">+ tipo(): string</text>
<text xml:space="preserve" text-anchor="start" x="266.88" y="-150.5" font-family="Arial" font-size="14.00">+ imprimirResumo(out): void</text>
<text xml:space="preserve" text-anchor="start" x="266.88" y="-120.75" font-family="Arial" font-size="14.00">+ imprimirDetalhado(out): void</text>
<polygon fill="none" stroke="#6a1b9a" points="258.88,-109.75 258.88,-270.75 688.88,-270.75 688.88,-109.75 258.88,-109.75"/>
</g>
<!-- Produto&#45;&gt;ItemEstoque -->
<g id="edge1" class="edge">
<title>Produto&#45;&gt;ItemEstoque</title>
<path fill="none" stroke="#1565c0" d="M645.23,-270.7C660.11,-278.43 674.84,-286.34 688.88,-294.25 722.96,-313.45 758.65,-335.26 792.42,-356.75"/>
<polygon fill="none" stroke="#1565c0" points="790.52,-358.86 798.77,-360.8 793.53,-354.14 790.52,-358.86"/>
<text xml:space="preserve" text-anchor="middle" x="744.38" y="-341.18" font-family="Arial" font-size="10.00">heranca</text>
</g>
<!-- Console -->
<g id="node6" class="node">
<title>Console</title>
<polygon fill="#ffe1ef" stroke="none" points="1267.62,-179.5 1267.62,-219.5 1406.88,-219.5 1406.88,-179.5 1267.62,-179.5"/>
<text xml:space="preserve" text-anchor="start" x="1300.12" y="-204" font-family="Arial" font-size="10.00">&lt;&lt;namespace&gt;&gt;</text>
<text xml:space="preserve" text-anchor="start" x="1306.88" y="-188.3" font-family="Arial" font-weight="bold" font-size="16.00">console</text>
<text xml:space="preserve" text-anchor="start" x="1274.62" y="-159.75" font-family="Arial" font-size="14.00">+ lerLinha(...)</text>
<text xml:space="preserve" text-anchor="start" x="1274.62" y="-130" font-family="Arial" font-size="14.00">+ lerInteiro(...)</text>
<text xml:space="preserve" text-anchor="start" x="1274.62" y="-100.25" font-family="Arial" font-size="14.00">+ lerDouble(...)</text>
<text xml:space="preserve" text-anchor="start" x="1274.62" y="-70.5" font-family="Arial" font-size="14.00">+ lerSimNao(...)</text>
<text xml:space="preserve" text-anchor="start" x="1274.62" y="-40.75" font-family="Arial" font-size="14.00">+ paraMinusculo(...)</text>
<text xml:space="preserve" text-anchor="start" x="1274.62" y="-11" font-family="Arial" font-size="14.00">+ formatarMoeda(...)</text>
<polygon fill="none" stroke="#ad1457" points="1266.62,0 1266.62,-220.5 1407.88,-220.5 1407.88,0 1266.62,0"/>
</g>
<!-- Produto&#45;&gt;Console -->
<g id="edge6" class="edge">
<title>Produto&#45;&gt;Console</title>
<path fill="none" stroke="#ad1457" stroke-dasharray="1,5" d="M688.49,-149.5C725.52,-143.57 763.73,-138.16 799.88,-134.25 962.03,-116.72 1153.09,-111.94 1257.79,-110.67"/>
<polygon fill="#ad1457" stroke="#ad1457" points="1257.55,-113.48 1265.52,-110.59 1257.49,-107.88 1257.55,-113.48"/>
<text xml:space="preserve" text-anchor="middle" x="956" y="-136.75" font-family="Arial" font-size="10.00">formatacao</text>
</g>
<!-- Estoque -->
<g id="node4" class="node">
<title>Estoque</title>
<polygon fill="#eceff1" stroke="none" points="310.88,-573.25 310.88,-613.25 636.88,-613.25 636.88,-573.25 310.88,-573.25"/>
<text xml:space="preserve" text-anchor="start" x="450.25" y="-597.75" font-family="Arial" font-size="10.00">&lt;&lt;class&gt;&gt;</text>
<text xml:space="preserve" text-anchor="start" x="442.38" y="-582.05" font-family="Arial" font-weight="bold" font-size="16.00">Estoque</text>
<text xml:space="preserve" text-anchor="start" x="317.88" y="-553.5" font-family="Arial" font-size="14.00">&#45; itens_: vector&lt;unique_ptr&lt;ItemEstoque&gt;&gt;</text>
<polygon fill="none" stroke="#90a4ae" points="310.88,-527.5 310.88,-543.5 636.88,-543.5 636.88,-527.5 310.88,-527.5"/>
<text xml:space="preserve" text-anchor="start" x="317.88" y="-507.75" font-family="Arial" font-size="14.00">+ adicionar(item): bool</text>
<text xml:space="preserve" text-anchor="start" x="317.88" y="-478" font-family="Arial" font-size="14.00">+ removerPorCodigo(codigo): bool</text>
<text xml:space="preserve" text-anchor="start" x="317.88" y="-448.25" font-family="Arial" font-size="14.00">+ localizarPorCodigo(codigo): ItemEstoque*</text>
<text xml:space="preserve" text-anchor="start" x="317.88" y="-418.5" font-family="Arial" font-size="14.00">+ localizarPorNome(termo): vector&lt;ItemEstoque*&gt;</text>
<text xml:space="preserve" text-anchor="start" x="317.88" y="-388.75" font-family="Arial" font-size="14.00">+ itens(): const vector&lt;unique_ptr&lt;ItemEstoque&gt;&gt;&amp;</text>
<text xml:space="preserve" text-anchor="start" x="317.88" y="-359" font-family="Arial" font-size="14.00">+ vazio(): bool</text>
<text xml:space="preserve" text-anchor="start" x="317.88" y="-329.25" font-family="Arial" font-size="14.00">+ limpar(): void</text>
<polygon fill="none" stroke="#455a64" points="309.88,-318.25 309.88,-614.25 637.88,-614.25 637.88,-318.25 309.88,-318.25"/>
</g>
<!-- Estoque&#45;&gt;ItemEstoque -->
<g id="edge3" class="edge">
<title>Estoque&#45;&gt;ItemEstoque</title>
<path fill="none" stroke="#455a64" d="M648.28,-466.25C694.72,-466.25 744.77,-466.25 790.7,-466.25"/>
<polygon fill="#455a64" stroke="#455a64" points="648.26,-466.25 643.46,-469.45 638.66,-466.25 643.46,-463.05 648.26,-466.25"/>
<polygon fill="#455a64" stroke="#455a64" points="790.62,-469.05 798.62,-466.25 790.62,-463.45 790.62,-469.05"/>
<text xml:space="preserve" text-anchor="middle" x="744.38" y="-468.75" font-family="Arial" font-size="10.00">0..* itens</text>
</g>
<!-- PersistenciaArquivo -->
<g id="node5" class="node">
<title>PersistenciaArquivo</title>
<polygon fill="#fff0d9" stroke="none" points="325.5,-873.62 325.5,-913.62 622.25,-913.62 622.25,-873.62 325.5,-873.62"/>
<text xml:space="preserve" text-anchor="start" x="450.25" y="-898.12" font-family="Arial" font-size="10.00">&lt;&lt;class&gt;&gt;</text>
<text xml:space="preserve" text-anchor="start" x="396.62" y="-882.42" font-family="Arial" font-weight="bold" font-size="16.00">PersistenciaArquivo</text>
<text xml:space="preserve" text-anchor="start" x="332.5" y="-853.88" font-family="Arial" font-size="14.00">&#45; caminhoArquivo_: string</text>
<polygon fill="none" stroke="#90a4ae" points="325.5,-827.88 325.5,-843.88 622.25,-843.88 622.25,-827.88 325.5,-827.88"/>
<text xml:space="preserve" text-anchor="start" x="332.5" y="-808.12" font-family="Arial" font-size="14.00">+ salvar(estoque): void</text>
<text xml:space="preserve" text-anchor="start" x="332.5" y="-778.38" font-family="Arial" font-size="14.00">+ carregar(estoque): bool</text>
<text xml:space="preserve" text-anchor="start" x="332.5" y="-748.62" font-family="Arial" font-size="14.00">+ caminhoArquivo(): const string&amp;</text>
<text xml:space="preserve" text-anchor="start" x="332.5" y="-718.88" font-family="Arial" font-size="14.00">&#45; criarItem(campos): unique_ptr&lt;ItemEstoque&gt;</text>
<polygon fill="none" stroke="#ef6c00" points="324.5,-707.88 324.5,-914.62 623.25,-914.62 623.25,-707.88 324.5,-707.88"/>
</g>
<!-- PersistenciaArquivo&#45;&gt;Produto -->
<g id="edge5" class="edge">
<title>PersistenciaArquivo&#45;&gt;Produto</title>
<path fill="none" stroke="#ef6c00" stroke-dasharray="5,2" d="M324.58,-718.87C298.47,-695.81 274.65,-668.79 258.88,-638.25 229.66,-581.68 252.18,-558.89 250.27,-495.25 247.58,-405.88 209.66,-368.9 258.88,-294.25 262.89,-288.16 267.36,-282.43 272.22,-277.01"/>
<polygon fill="#ef6c00" stroke="#ef6c00" points="274.04,-279.16 277.52,-271.43 269.98,-275.3 274.04,-279.16"/>
<text xml:space="preserve" text-anchor="middle" x="215" y="-485.75" font-family="Arial" font-size="10.00">cria</text>
</g>
<!-- PersistenciaArquivo&#45;&gt;Estoque -->
<g id="edge4" class="edge">
<title>PersistenciaArquivo&#45;&gt;Estoque</title>
<path fill="none" stroke="#ef6c00" stroke-dasharray="5,2" d="M473.88,-708C473.88,-681.36 473.88,-652.07 473.88,-623.36"/>
<polygon fill="#ef6c00" stroke="#ef6c00" points="476.68,-623.58 473.88,-615.58 471.08,-623.58 476.68,-623.58"/>
<text xml:space="preserve" text-anchor="middle" x="464.88" y="-657.56" font-family="Arial" font-size="10.00">salva / carrega</text>
</g>
</g>
</svg>
